<mxfile host="Electron" modified="2023-04-13T09:42:50.225Z" agent="Mozilla/5.0 (Windows NT 10.0; Win64; x64) AppleWebKit/537.36 (KHTML, like Gecko) draw.io/21.1.2 Chrome/106.0.5249.199 Electron/21.4.3 Safari/537.36" etag="0iZJl2EzaYvhuKNpVuq_" version="21.1.2" type="device">
  <diagram name="Page-1" id="2e3KgjJzdzKdFFn5oYba">
    <mxGraphModel dx="522" dy="523" grid="1" gridSize="10" guides="1" tooltips="1" connect="1" arrows="1" fold="1" page="1" pageScale="1" pageWidth="1200" pageHeight="1600" math="0" shadow="0">
      <root>
        <mxCell id="0" />
        <mxCell id="1" parent="0" />
        <mxCell id="Mo5PXs0je8lvETwz3aJE-1" value="begin find fibonacci n" style="ellipse;whiteSpace=wrap;html=1;" vertex="1" parent="1">
          <mxGeometry x="180" width="120" height="20" as="geometry" />
        </mxCell>
        <mxCell id="Mo5PXs0je8lvETwz3aJE-2" value="" style="endArrow=classic;html=1;rounded=0;exitX=0.5;exitY=1;exitDx=0;exitDy=0;entryX=0.5;entryY=0;entryDx=0;entryDy=0;" edge="1" parent="1" source="Mo5PXs0je8lvETwz3aJE-1" target="Mo5PXs0je8lvETwz3aJE-3">
          <mxGeometry width="50" height="50" relative="1" as="geometry">
            <mxPoint x="300" y="200" as="sourcePoint" />
            <mxPoint x="240" y="30" as="targetPoint" />
          </mxGeometry>
        </mxCell>
        <mxCell id="Mo5PXs0je8lvETwz3aJE-3" value="input n" style="shape=parallelogram;perimeter=parallelogramPerimeter;whiteSpace=wrap;html=1;fixedSize=1;" vertex="1" parent="1">
          <mxGeometry x="200" y="30" width="80" height="20" as="geometry" />
        </mxCell>
        <mxCell id="Mo5PXs0je8lvETwz3aJE-5" value="" style="endArrow=classic;html=1;rounded=0;exitX=0.5;exitY=1;exitDx=0;exitDy=0;entryX=0.5;entryY=0;entryDx=0;entryDy=0;" edge="1" parent="1" source="Mo5PXs0je8lvETwz3aJE-3" target="Mo5PXs0je8lvETwz3aJE-6">
          <mxGeometry width="50" height="50" relative="1" as="geometry">
            <mxPoint x="280" y="210" as="sourcePoint" />
            <mxPoint x="330" y="160" as="targetPoint" />
          </mxGeometry>
        </mxCell>
        <mxCell id="Mo5PXs0je8lvETwz3aJE-6" value="n=0 or n=1" style="rhombus;whiteSpace=wrap;html=1;" vertex="1" parent="1">
          <mxGeometry x="200" y="60" width="80" height="30" as="geometry" />
        </mxCell>
        <mxCell id="Mo5PXs0je8lvETwz3aJE-7" value="" style="endArrow=classic;html=1;rounded=0;exitX=1;exitY=0.5;exitDx=0;exitDy=0;entryX=0.5;entryY=0;entryDx=0;entryDy=0;" edge="1" parent="1" source="Mo5PXs0je8lvETwz3aJE-6" target="Mo5PXs0je8lvETwz3aJE-8">
          <mxGeometry width="50" height="50" relative="1" as="geometry">
            <mxPoint x="370" y="120" as="sourcePoint" />
            <mxPoint x="420" y="70" as="targetPoint" />
            <Array as="points">
              <mxPoint x="320" y="75" />
            </Array>
          </mxGeometry>
        </mxCell>
        <mxCell id="Mo5PXs0je8lvETwz3aJE-8" value="return n" style="ellipse;whiteSpace=wrap;html=1;" vertex="1" parent="1">
          <mxGeometry x="270" y="90" width="100" height="20" as="geometry" />
        </mxCell>
        <mxCell id="Mo5PXs0je8lvETwz3aJE-10" value="+" style="text;html=1;align=center;verticalAlign=middle;resizable=0;points=[];autosize=1;strokeColor=none;fillColor=none;" vertex="1" parent="1">
          <mxGeometry x="275" y="55" width="30" height="30" as="geometry" />
        </mxCell>
        <mxCell id="Mo5PXs0je8lvETwz3aJE-11" value="" style="endArrow=classic;html=1;rounded=0;exitX=0;exitY=0.5;exitDx=0;exitDy=0;entryX=0.5;entryY=0;entryDx=0;entryDy=0;" edge="1" parent="1" source="Mo5PXs0je8lvETwz3aJE-6" target="Mo5PXs0je8lvETwz3aJE-12">
          <mxGeometry width="50" height="50" relative="1" as="geometry">
            <mxPoint x="90" y="80" as="sourcePoint" />
            <mxPoint x="140" y="30" as="targetPoint" />
            <Array as="points">
              <mxPoint x="130" y="75" />
            </Array>
          </mxGeometry>
        </mxCell>
        <mxCell id="Mo5PXs0je8lvETwz3aJE-12" value="return fibbo(n-1)+fibbo(n-2)" style="ellipse;whiteSpace=wrap;html=1;" vertex="1" parent="1">
          <mxGeometry x="70" y="90" width="120" height="30" as="geometry" />
        </mxCell>
        <mxCell id="Mo5PXs0je8lvETwz3aJE-13" value="" style="endArrow=none;html=1;rounded=0;exitX=0.5;exitY=1;exitDx=0;exitDy=0;entryX=0.5;entryY=1;entryDx=0;entryDy=0;" edge="1" parent="1" source="Mo5PXs0je8lvETwz3aJE-12" target="Mo5PXs0je8lvETwz3aJE-8">
          <mxGeometry width="50" height="50" relative="1" as="geometry">
            <mxPoint x="220" y="260" as="sourcePoint" />
            <mxPoint x="270" y="210" as="targetPoint" />
            <Array as="points">
              <mxPoint x="130" y="140" />
              <mxPoint x="320" y="140" />
            </Array>
          </mxGeometry>
        </mxCell>
      </root>
    </mxGraphModel>
  </diagram>
</mxfile>
